<?xml version="1.0" standalone="no"?>
<!DOCTYPE svg PUBLIC "-//W3C//DTD SVG 20010904//EN"
 "http://www.w3.org/TR/2001/REC-SVG-20010904/DTD/svg10.dtd">
<svg version="1.0" xmlns="http://www.w3.org/2000/svg"
 width="200.000000pt" height="200.000000pt" viewBox="0 0 200.000000 200.000000"
 preserveAspectRatio="xMidYMid meet">
<metadata>
Created by potrace 1.14, written by Peter Selinger 2001-2017
</metadata>
<g transform="translate(0.000000,200.000000) scale(0.100000,-0.100000)"
fill="#000000" stroke="none">
<path d="M81 1654 c-47 -41 -60 -92 -38 -146 30 -71 119 -101 184 -63 114 67
69 235 -64 240 -35 2 -49 -4 -82 -31z"/>
<path d="M94 1271 c-61 -37 -64 -54 -59 -345 4 -298 6 -312 41 -383 70 -144
287 -232 462 -187 54 14 145 56 168 78 11 11 49 44 194 167 118 100 126 106
215 179 44 35 86 70 93 77 8 8 30 26 50 41 20 15 47 38 61 51 15 13 42 35 61
50 19 14 37 28 40 31 3 3 25 22 49 43 34 28 50 35 70 31 40 -8 114 -36 129
-48 35 -29 71 -70 97 -110 24 -38 61 -63 86 -58 4 1 19 3 34 6 45 8 81 63 72
111 -10 57 -114 180 -182 215 -17 8 -32 17 -35 21 -17 18 -145 47 -218 48
-102 2 -163 -16 -252 -75 -52 -34 -301 -235 -420 -337 -14 -12 -47 -40 -75
-62 -27 -22 -59 -48 -70 -58 -11 -10 -51 -44 -90 -75 -38 -31 -74 -61 -80 -66
-33 -35 -128 -86 -160 -86 -19 0 -63 77 -71 125 -4 22 -8 154 -9 293 -3 246
-3 254 -26 287 -13 19 -34 39 -47 44 -36 17 -94 13 -128 -8z"/>
<path d="M1767 716 c-18 -19 -45 -50 -62 -69 -73 -86 -216 -114 -315 -63 -14
7 -43 22 -65 33 -81 42 -155 -1 -155 -90 0 -41 35 -81 104 -122 140 -82 305
-87 462 -14 58 28 157 118 190 174 56 97 12 185 -92 185 -28 0 -43 -8 -67 -34z"/>
</g>
</svg>
